<?xml version="1.0" standalone="no"?>
<svg xmlns:xlink="http://www.w3.org/1999/xlink" id="wave" style="transform:rotate(180deg); transition: 0.3s" viewBox="0 0 1440 180" version="1.1" xmlns="http://www.w3.org/2000/svg"><defs><linearGradient id="sw-gradient-0" x1="0" x2="0" y1="1" y2="0"><stop stop-color="rgba(59, 35, 108, 1)" offset="0%"/><stop stop-color="rgba(59, 35, 108, 1)" offset="100%"/></linearGradient></defs><path style="transform:translate(0, 0px); opacity:1" fill="url(#sw-gradient-0)" d="M0,108L20,96C40,84,80,60,120,42C160,24,200,12,240,6C280,0,320,0,360,21C400,42,440,84,480,93C520,102,560,78,600,60C640,42,680,30,720,27C760,24,800,30,840,45C880,60,920,84,960,84C1000,84,1040,60,1080,60C1120,60,1160,84,1200,105C1240,126,1280,144,1320,135C1360,126,1400,90,1440,63C1480,36,1520,18,1560,18C1600,18,1640,36,1680,60C1720,84,1760,114,1800,108C1840,102,1880,60,1920,39C1960,18,2000,18,2040,24C2080,30,2120,42,2160,66C2200,90,2240,126,2280,117C2320,108,2360,54,2400,33C2440,12,2480,24,2520,36C2560,48,2600,60,2640,81C2680,102,2720,132,2760,135C2800,138,2840,114,2860,102L2880,90L2880,180L2860,180C2840,180,2800,180,2760,180C2720,180,2680,180,2640,180C2600,180,2560,180,2520,180C2480,180,2440,180,2400,180C2360,180,2320,180,2280,180C2240,180,2200,180,2160,180C2120,180,2080,180,2040,180C2000,180,1960,180,1920,180C1880,180,1840,180,1800,180C1760,180,1720,180,1680,180C1640,180,1600,180,1560,180C1520,180,1480,180,1440,180C1400,180,1360,180,1320,180C1280,180,1240,180,1200,180C1160,180,1120,180,1080,180C1040,180,1000,180,960,180C920,180,880,180,840,180C800,180,760,180,720,180C680,180,640,180,600,180C560,180,520,180,480,180C440,180,400,180,360,180C320,180,280,180,240,180C200,180,160,180,120,180C80,180,40,180,20,180L0,180Z"/></svg>